<svg width="40" height="40" viewBox="0 0 40 40" fill="none" xmlns="http://www.w3.org/2000/svg">
<path d="M40 7.59516C38.5283 8.24849 36.9467 8.68849 35.2867 8.88683C36.9817 7.87183 38.2833 6.26349 38.895 4.34683C37.31 5.28683 35.5533 5.97016 33.6833 6.33849C32.1883 4.74349 30.0533 3.74683 27.6933 3.74683C22.395 3.74683 18.5017 8.69016 19.6983 13.8218C12.88 13.4802 6.83333 10.2135 2.785 5.24849C0.635 8.93683 1.67 13.7618 5.32333 16.2052C3.98 16.1618 2.71333 15.7935 1.60833 15.1785C1.51833 18.9801 4.24333 22.5367 8.19 23.3284C7.035 23.6417 5.77 23.7151 4.48333 23.4684C5.52667 26.7284 8.55667 29.1001 12.15 29.1667C8.7 31.8717 4.35333 33.0801 0 32.5667C3.63167 34.8951 7.94667 36.2534 12.58 36.2534C27.8167 36.2534 36.425 23.3851 35.905 11.8435C37.5083 10.6852 38.9 9.24016 40 7.59516Z" fill="white"/>
</svg>
